<?xml version="1.0" standalone="no"?>
<!DOCTYPE svg PUBLIC "-//W3C//DTD SVG 20010904//EN"
 "http://www.w3.org/TR/2001/REC-SVG-20010904/DTD/svg10.dtd">
<svg version="1.0" xmlns="http://www.w3.org/2000/svg"
 width="431.000000pt" height="431.000000pt" viewBox="0 0 431.000000 431.000000"
 preserveAspectRatio="xMidYMid meet">
<metadata>
Created by potrace 1.14, written by Peter Selinger 2001-2017
</metadata>
<g transform="translate(0.000000,431.000000) scale(0.100000,-0.100000)"
fill="#000000" stroke="none">
<path d="M1157 4084 c-2 -3 -21 -7 -42 -9 -22 -3 -64 -12 -94 -21 -73 -20 -73
-20 -93 -28 -9 -4 -23 -9 -31 -10 -8 -1 -23 -8 -33 -16 -9 -8 -18 -14 -18 -12
-2 7 -42 -12 -60 -27 -10 -9 -19 -14 -20 -13 -2 7 -56 -21 -56 -28 0 -4 -13
-13 -29 -20 -16 -6 -32 -18 -35 -27 -3 -8 -10 -12 -15 -9 -5 3 -12 -1 -15 -10
-3 -8 -11 -12 -17 -8 -8 4 -9 3 -5 -4 4 -6 -5 -18 -21 -26 -15 -8 -24 -15 -20
-16 12 0 -61 -70 -73 -70 -6 0 -9 -4 -6 -9 4 -5 -6 -19 -21 -31 -16 -12 -21
-19 -13 -15 12 5 12 4 -1 -7 -8 -7 -18 -21 -22 -30 -3 -10 -11 -18 -17 -18 -5
0 -10 -7 -10 -15 0 -8 -5 -15 -11 -15 -5 0 -8 -4 -5 -9 3 -5 -1 -12 -10 -15
-8 -3 -12 -10 -9 -16 3 -5 1 -10 -6 -10 -7 0 -10 -3 -6 -6 3 -3 -7 -29 -22
-57 -16 -29 -34 -73 -42 -99 -7 -27 -17 -48 -22 -48 -4 0 -5 -4 -2 -10 3 -5 3
-16 -2 -22 -8 -14 -12 -27 -19 -78 -3 -19 -9 -49 -14 -67 -9 -34 -6 -291 4
-333 3 -14 9 -36 12 -50 3 -14 7 -33 7 -42 1 -10 4 -18 7 -18 4 0 7 -6 8 -12
3 -31 16 -73 23 -78 5 -3 10 -15 12 -25 2 -11 11 -35 20 -52 10 -18 14 -33 10
-33 -5 0 0 -5 10 -11 9 -6 15 -14 12 -20 -4 -5 -1 -9 5 -9 6 0 8 -4 5 -10 -3
-5 -1 -10 5 -10 6 0 8 -5 5 -10 -3 -6 1 -13 9 -16 9 -3 14 -10 11 -14 -3 -4 2
-11 11 -14 8 -3 13 -10 9 -15 -3 -6 3 -14 12 -20 10 -6 15 -11 12 -11 -3 0 8
-16 25 -36 28 -32 55 -60 169 -169 17 -16 32 -28 33 -25 1 3 14 -5 27 -17 14
-12 27 -19 30 -17 2 2 10 -2 17 -11 7 -8 19 -15 26 -15 8 0 14 -5 14 -11 0 -5
5 -7 10 -4 6 3 10 1 10 -5 0 -6 5 -8 10 -5 6 3 10 2 10 -3 0 -5 10 -13 23 -17
12 -4 25 -8 30 -10 18 -6 22 -7 30 -6 4 0 7 -4 7 -11 0 -6 3 -8 7 -5 3 4 12 2
20 -4 7 -6 13 -8 13 -5 0 4 9 2 21 -4 22 -12 39 -17 114 -31 67 -13 118 -19
191 -23 56 -2 67 -7 154 -67 123 -84 268 -223 331 -318 28 -42 66 -96 84 -121
23 -32 35 -61 40 -100 3 -30 10 -68 15 -85 5 -16 23 -79 40 -138 18 -60 30
-111 27 -113 -11 -11 -87 29 -92 49 -17 59 -94 252 -131 327 -72 147 -159 206
-296 198 -131 -6 -233 -80 -301 -217 -31 -61 -37 -84 -37 -135 1 -111 57 -214
188 -341 97 -94 222 -184 331 -238 71 -35 96 -42 157 -45 70 -4 75 -3 103 26
18 17 35 49 42 76 9 38 15 46 28 40 9 -4 53 -21 98 -38 49 -18 83 -37 83 -45
0 -17 97 -166 141 -215 88 -101 194 -99 348 7 35 24 45 27 52 16 5 -8 38 -61
73 -119 63 -104 76 -127 131 -227 15 -29 32 -53 37 -53 5 0 -10 37 -35 83 -93
172 -155 293 -160 312 -5 15 5 28 40 55 161 121 408 422 646 787 116 177 237
378 237 392 0 13 -94 -44 -191 -116 -39 -29 -72 -53 -75 -53 -12 0 0 40 35
123 22 51 46 111 54 132 137 365 207 644 207 828 0 137 -45 286 -108 359 -63
71 -123 74 -261 15 -110 -48 -448 -273 -460 -307 -5 -14 -10 -19 -10 -12 -1 7
-5 11 -9 8 -11 -7 -7 45 5 52 14 10 26 44 24 66 -2 11 2 16 8 12 7 -4 8 -1 5
8 -4 10 -1 16 7 16 11 0 11 3 -1 10 -8 5 -10 10 -4 10 7 0 15 7 18 16 4 10 2
13 -7 8 -6 -4 -4 2 6 13 9 11 14 22 11 25 -3 4 -1 15 4 25 5 10 13 36 16 57
l7 39 -61 -6 c-69 -6 -161 -46 -228 -99 -64 -52 -225 -230 -277 -308 -55 -83
-104 -195 -131 -297 -10 -40 -22 -73 -27 -73 -4 0 -19 -12 -34 -26 -14 -14
-27 -23 -29 -21 -6 5 -24 106 -24 131 0 12 8 31 18 42 10 10 21 27 25 37 3 9
11 17 17 17 6 0 9 4 5 9 -3 5 -1 12 5 16 13 8 55 87 52 98 -1 4 2 7 8 7 6 0 9
3 8 8 -1 4 3 18 9 32 12 27 26 62 27 70 1 3 4 10 8 16 4 6 10 24 13 40 8 39
13 59 15 59 4 0 22 116 25 162 2 41 43 95 119 157 l29 24 -33 7 c-17 4 -52 4
-76 0 -43 -6 -44 -6 -45 22 -3 52 -10 93 -28 151 -5 17 -7 32 -4 32 3 0 0 6
-6 13 -6 8 -8 17 -4 21 4 4 2 11 -5 15 -7 4 -14 18 -15 29 -1 12 -5 22 -9 22
-24 0 22 46 100 99 96 66 232 177 232 190 0 13 -158 -16 -239 -44 -41 -14 -98
-38 -128 -55 -29 -17 -53 -26 -53 -21 0 5 -12 24 -27 42 -16 18 -21 29 -13 25
8 -5 2 3 -14 18 -16 14 -25 26 -20 26 5 0 1 5 -8 11 -10 5 -18 17 -18 25 0 8
-4 13 -9 10 -4 -3 -17 4 -27 16 -11 12 -13 18 -5 13 10 -5 12 -4 7 3 -4 7 -12
12 -17 12 -6 0 -28 18 -50 41 -21 22 -39 37 -39 33 0 -4 -9 3 -20 16 -11 13
-20 20 -20 16 0 -4 -10 2 -22 14 -12 11 -28 20 -35 20 -7 0 -13 4 -13 8 0 8
-47 34 -60 34 -3 0 -12 6 -21 14 -9 8 -19 11 -22 7 -4 -3 -7 -1 -7 5 0 7 -3
11 -7 10 -5 -1 -21 5 -38 12 -16 7 -33 14 -37 15 -5 2 -10 4 -13 5 -3 1 -9 4
-15 5 -5 1 -11 3 -12 5 -5 3 -76 20 -158 36 -32 7 -278 13 -283 8z m730 -2069
c37 -16 72 -32 77 -36 4 -4 1 -20 -8 -36 -23 -42 -56 -131 -56 -153 0 -11 -2
-20 -4 -20 -2 0 -46 22 -97 48 -52 27 -136 64 -186 82 -83 29 -112 48 -83 51
13 2 17 3 70 19 25 7 47 14 50 15 3 0 15 6 26 13 12 6 24 8 28 5 3 -3 6 -1 6
6 0 7 5 9 10 6 6 -3 10 -2 10 2 0 12 42 30 67 28 12 -1 52 -15 90 -30z"/>
</g>
</svg>
